<svg width="512" height="512" viewBox="0 0 512 512" fill="none" xmlns="http://www.w3.org/2000/svg">
<rect width="512" height="512" rx="16" fill="white"/>
<path d="M224.109 287.035C223.654 288.767 223.152 290.772 222.605 293.051C222.15 295.238 221.922 297.335 221.922 299.34C221.922 301.163 222.195 302.712 222.742 303.988C223.289 305.264 224.474 305.902 226.297 305.902C228.758 305.902 231.674 305.036 235.047 303.305C238.51 301.482 242.202 299.112 246.121 296.195C250.04 293.188 254.096 289.77 258.289 285.941C262.482 282.022 266.629 278.012 270.73 273.91C274.832 269.717 278.751 265.525 282.488 261.332C286.225 257.139 289.552 253.22 292.469 249.574L297.527 267.758C291.512 275.779 285.314 283.48 278.934 290.863C272.553 298.246 266.036 304.763 259.383 310.414C252.82 316.065 246.212 320.577 239.559 323.949C232.905 327.322 226.297 329.008 219.734 329.008C215.906 329.008 212.625 328.37 209.891 327.094C207.247 325.909 205.105 324.268 203.465 322.172C201.824 319.984 200.594 317.523 199.773 314.789C199.044 311.964 198.68 309.001 198.68 305.902C198.68 304.717 198.725 303.031 198.816 300.844C198.908 298.656 198.999 296.423 199.09 294.145C199.272 291.775 199.409 289.633 199.5 287.719C199.682 285.805 199.773 284.574 199.773 284.027L151.238 287.035L128.68 287.309C124.852 295.603 121.069 302.94 117.332 309.32C115.691 312.055 113.96 314.743 112.137 317.387C110.314 320.03 108.491 322.4 106.668 324.496C104.845 326.501 103.022 328.096 101.199 329.281C99.3763 330.557 97.599 331.195 95.8672 331.195C93.1328 331.195 90.8997 330.785 89.168 329.965C87.4362 329.145 86.069 328.096 85.0664 326.82C84.0638 325.635 83.3346 324.268 82.8789 322.719C82.5143 321.169 82.332 319.711 82.332 318.344C82.332 315.974 82.651 313.65 83.2891 311.371C83.9271 309.001 84.8385 306.768 86.0234 304.672L104.07 274.32C104.891 273.044 106.531 269.991 108.992 265.16C111.544 260.329 114.78 254.405 118.699 247.387C122.71 240.277 127.312 232.439 132.508 223.871C137.703 215.303 143.309 206.645 149.324 197.895C155.431 189.053 161.857 180.486 168.602 172.191C175.438 163.897 182.41 156.56 189.52 150.18C196.72 143.708 203.966 138.559 211.258 134.73C218.549 130.811 225.796 128.852 232.996 128.852C239.741 128.852 246.349 130.948 252.82 135.141C259.383 139.333 265.626 146.215 271.551 155.785C272.189 157.061 272.508 158.155 272.508 159.066C272.508 160.251 272.189 161.436 271.551 162.621C270.913 163.806 270.047 164.854 268.953 165.766C267.951 166.677 266.811 167.406 265.535 167.953C264.259 168.5 262.938 168.773 261.57 168.773C259.93 168.773 258.016 168.409 255.828 167.68C253.732 166.951 251.727 165.401 249.812 163.031C246.987 159.75 244.025 157.38 240.926 155.922C237.918 154.372 234.91 153.598 231.902 153.598C227.618 153.598 223.243 154.828 218.777 157.289C214.311 159.659 209.799 162.94 205.242 167.133C200.776 171.234 196.31 176.02 191.844 181.488C187.378 186.866 183.048 192.562 178.855 198.578C174.663 204.594 170.607 210.746 166.688 217.035C162.768 223.324 159.077 229.34 155.613 235.082C152.15 240.824 148.96 246.111 146.043 250.941C143.217 255.772 140.711 259.828 138.523 263.109H163.543L205.789 259.965C206.609 258.142 207.703 255.681 209.07 252.582C210.438 249.392 211.941 245.837 213.582 241.918C215.314 237.999 217.182 233.76 219.188 229.203C221.193 224.646 223.198 220.089 225.203 215.531C227.299 210.883 229.35 206.326 231.355 201.859C233.361 197.302 235.229 193.109 236.961 189.281C238.146 185.818 239.878 183.357 242.156 181.898C244.526 180.44 247.033 179.711 249.676 179.711C251.043 179.711 252.41 179.939 253.777 180.395C255.145 180.759 256.375 181.397 257.469 182.309C258.654 183.129 259.611 184.223 260.34 185.59C261.069 186.866 261.479 188.415 261.57 190.238C261.57 191.97 260.796 194.932 259.246 199.125C257.788 203.318 255.874 208.24 253.504 213.891C251.225 219.542 248.628 225.694 245.711 232.348C242.885 238.91 240.06 245.518 237.234 252.172C234.5 258.734 231.948 265.069 229.578 271.176C227.208 277.191 225.385 282.478 224.109 287.035ZM278.797 259.145C281.622 252.855 283.947 247.797 285.77 243.969C287.592 240.049 289.233 237.042 290.691 234.945C292.241 232.758 293.745 231.299 295.203 230.57C296.753 229.841 298.667 229.477 300.945 229.477C304.409 229.477 307.371 230.616 309.832 232.895C312.384 235.082 313.66 237.908 313.66 241.371C313.66 242.191 313.523 243.012 313.25 243.832C313.068 244.652 312.794 245.473 312.43 246.293L289.188 301.254C288.823 301.983 288.549 302.803 288.367 303.715C288.276 304.535 288.23 305.219 288.23 305.766C288.23 306.951 288.458 307.862 288.914 308.5C289.461 309.047 290.008 309.32 290.555 309.32C291.557 309.32 292.56 309.092 293.562 308.637C294.656 308.181 295.887 307.406 297.254 306.312C298.712 305.128 300.444 303.578 302.449 301.664C304.546 299.659 307.098 297.152 310.105 294.145C312.931 291.137 315.848 287.536 318.855 283.344C321.863 279.06 324.78 274.594 327.605 269.945C330.522 265.206 333.211 260.466 335.672 255.727C338.133 250.896 340.275 246.43 342.098 242.328C343.465 239.594 344.695 237.406 345.789 235.766C346.883 234.034 347.931 232.712 348.934 231.801C350.027 230.889 351.121 230.297 352.215 230.023C353.309 229.659 354.585 229.477 356.043 229.477C361.603 229.477 364.383 231.892 364.383 236.723C364.201 237.452 364.064 238.272 363.973 239.184C363.973 240.095 363.745 241.143 363.289 242.328L341.961 305.355C341.961 307.634 343.1 308.773 345.379 308.773C347.02 308.591 349.161 307.771 351.805 306.312C354.539 304.763 357.273 302.849 360.008 300.57C362.742 298.201 365.294 295.512 367.664 292.504C370.034 289.405 371.766 286.215 372.859 282.934C374.865 276.918 376.87 270.857 378.875 264.75C380.971 258.643 383.159 253.129 385.438 248.207C387.807 243.194 390.314 239.092 392.957 235.902C395.691 232.621 398.699 230.844 401.98 230.57C404.897 230.57 407.267 231.527 409.09 233.441C411.004 235.264 411.961 237.68 411.961 240.688C411.961 244.242 411.46 248.07 410.457 252.172C409.546 256.273 408.315 260.375 406.766 264.477C405.216 268.578 403.348 272.543 401.16 276.371C399.064 280.199 396.876 283.663 394.598 286.762C395.236 288.676 396.557 289.633 398.562 289.633C402.117 289.633 405.444 289.359 408.543 288.812C411.733 288.266 414.786 287.491 417.703 286.488C420.711 285.395 423.673 284.118 426.59 282.66C429.598 281.202 432.697 279.516 435.887 277.602C437.345 276.599 438.803 276.098 440.262 276.098C442.085 276.098 443.725 276.781 445.184 278.148C446.642 279.516 447.371 281.293 447.371 283.48C447.371 285.486 446.46 287.536 444.637 289.633C442.905 291.729 440.581 293.78 437.664 295.785C434.747 297.79 431.421 299.659 427.684 301.391C424.038 303.122 420.301 304.672 416.473 306.039C412.736 307.315 409.09 308.363 405.535 309.184C402.072 309.913 399.018 310.277 396.375 310.277C391.271 310.277 386.03 308.819 380.652 305.902C374.272 313.559 367.618 319.392 360.691 323.402C353.855 327.413 346.883 329.418 339.773 329.418C333.211 329.418 328.471 327.732 325.555 324.359C322.729 320.896 321.316 315.883 321.316 309.32C314.48 316.247 308.055 321.352 302.039 324.633C296.115 327.823 290.008 329.418 283.719 329.418C279.708 329.418 276.336 328.917 273.602 327.914C270.958 327.003 268.816 325.681 267.176 323.949C265.535 322.217 264.35 320.212 263.621 317.934C262.983 315.564 262.664 313.012 262.664 310.277C262.664 305.811 263.302 301.117 264.578 296.195C265.854 291.182 267.358 286.352 269.09 281.703C270.913 277.055 272.69 272.771 274.422 268.852C276.245 264.841 277.703 261.605 278.797 259.145Z" fill="#000716"/>
<path d="M87.5 396.5H427" stroke="black" stroke-width="24" stroke-linecap="round"/>
</svg>
